<svg width="644" height="685" viewBox="0 0 644 685" fill="none" xmlns="http://www.w3.org/2000/svg">
<path d="M263.243 85.0977H292.636" stroke="#263238" stroke-width="2" stroke-miterlimit="10"/>
<path d="M277.028 79.7695L272.427 93.0729C272.427 93.0729 134.63 107.264 122.685 87.7447C110.74 68.225 130.967 61.1549 178.728 68.2421C226.489 75.3293 277.028 79.7695 277.028 79.7695Z" fill="white" stroke="#263238" stroke-miterlimit="10"/>
<path d="M382.07 85.0977H352.677" stroke="#263238" stroke-width="2" stroke-miterlimit="10"/>
<path d="M368.285 79.7695L372.886 93.0729C372.886 93.0729 510.683 107.264 522.61 87.7447C534.537 68.225 514.435 61.1549 466.656 68.2421C418.877 75.3293 368.285 79.7695 368.285 79.7695Z" fill="white" stroke="#263238" stroke-miterlimit="10"/>
<path d="M305.624 111.158C305.624 111.158 300.439 139.797 309.765 142.495C319.091 145.194 341.334 144.596 347.528 136.604C353.721 128.611 349.563 120.619 342.697 108.596C335.831 96.5738 317.799 95.8566 305.624 111.158Z" fill="white" stroke="#263238" stroke-miterlimit="10"/>
<path d="M318.436 0V89.777H326.806V4.0474" fill="white"/>
<path d="M318.436 0V89.777H326.806V4.0474" stroke="#263238" stroke-miterlimit="10"/>
<path d="M297.573 95.2759C314.327 100.399 332.313 100.399 349.067 95.2759H362.251V83.7486C362.251 75.2098 344.82 68.3787 323.32 68.3787C301.82 68.3787 284.389 75.2098 284.389 83.7486V95.2759H297.573Z" fill="white" stroke="#263238" stroke-miterlimit="10"/>
<path d="M323.32 110.646C344.821 110.646 362.251 103.764 362.251 95.2759C362.251 86.7874 344.821 79.9061 323.32 79.9061C301.819 79.9061 284.389 86.7874 284.389 95.2759C284.389 103.764 301.819 110.646 323.32 110.646Z" fill="white" stroke="#263238" stroke-miterlimit="10"/>
<path d="M323.32 110.646C344.821 110.646 362.251 103.764 362.251 95.2759C362.251 86.7874 344.821 79.9061 323.32 79.9061C301.819 79.9061 284.389 86.7874 284.389 95.2759C284.389 103.764 301.819 110.646 323.32 110.646Z" fill="white" stroke="#263238" stroke-miterlimit="10"/>
<path d="M461.666 401.153H436.52V469.019H461.666V401.153Z" fill="#A8A8A8"/>
<path d="M455.384 406.72H442.82V447.057H455.384V406.72Z" fill="#8C8C8C"/>
<path d="M449.102 463.11C451.164 463.11 452.836 461.497 452.836 459.507C452.836 457.517 451.164 455.904 449.102 455.904C447.04 455.904 445.368 457.517 445.368 459.507C445.368 461.497 447.04 463.11 449.102 463.11Z" fill="#8C8C8C"/>
<path d="M497.571 401.153H472.425V469.019H497.571V401.153Z" fill="#8C8C8C"/>
<path d="M491.271 406.72H478.707V447.057H491.271V406.72Z" fill="#A8A8A8"/>
<path d="M485.007 463.11C487.069 463.11 488.74 461.497 488.74 459.507C488.74 457.517 487.069 455.904 485.007 455.904C482.944 455.904 481.273 457.517 481.273 459.507C481.273 461.497 482.944 463.11 485.007 463.11Z" fill="#A8A8A8"/>
<path d="M533.475 401.153H508.33V469.019H533.475V401.153Z" fill="#8C8C8C"/>
<path d="M527.176 406.72H514.612V447.057H527.176V406.72Z" fill="#A8A8A8"/>
<path d="M524.645 459.456C524.645 458.739 524.425 458.038 524.012 457.443C523.599 456.847 523.012 456.383 522.325 456.109C521.639 455.836 520.884 455.765 520.155 455.906C519.427 456.047 518.759 456.394 518.235 456.902C517.711 457.41 517.355 458.057 517.212 458.76C517.069 459.463 517.146 460.192 517.433 460.853C517.72 461.514 518.203 462.079 518.822 462.474C519.442 462.87 520.169 463.08 520.911 463.076C521.903 463.072 522.853 462.688 523.553 462.01C524.253 461.331 524.645 460.413 524.645 459.456Z" fill="#A8A8A8"/>
<path d="M569.38 401.153H544.234V469.019H569.38V401.153Z" fill="#A8A8A8"/>
<path d="M563.081 406.72H550.517V447.057H563.081V406.72Z" fill="#8C8C8C"/>
<path d="M560.55 459.456C560.55 458.74 560.33 458.04 559.918 457.444C559.506 456.849 558.92 456.385 558.234 456.111C557.549 455.837 556.794 455.765 556.067 455.905C555.339 456.045 554.671 456.389 554.146 456.896C553.621 457.402 553.264 458.047 553.119 458.749C552.974 459.452 553.049 460.18 553.333 460.841C553.617 461.503 554.097 462.068 554.714 462.466C555.331 462.864 556.057 463.076 556.799 463.076C557.794 463.076 558.748 462.695 559.451 462.016C560.155 461.337 560.55 460.416 560.55 459.456Z" fill="#8C8C8C"/>
<path d="M610.258 228.208V223.29H600.737V205H593.27V223.29H426.115V205H418.647V223.29H406.066V228.208H418.647V304.921H406.066V309.839H418.647V386.569H406.066V391.487H418.647V468.2H406.066V473.118H418.647V557.106H426.115V473.118H593.27V557.106H600.737V473.118H610.258V468.2H600.737V391.487H610.258V386.569H600.737V309.839H610.258V304.921H600.737V228.208H610.258ZM593.27 468.2H426.115V391.487H593.27V468.2ZM593.27 386.569H426.115V309.839H593.27V386.569ZM593.27 304.921H426.115V228.208H593.27V304.921Z" fill="#A8A8A8"/>
<path d="M547.349 237.054H522.203V304.921H547.349V237.054Z" fill="#8C8C8C"/>
<path d="M541.049 242.621H528.485V282.959H541.049V242.621Z" fill="#8C8C8C"/>
<path d="M538.519 295.408C538.519 294.692 538.298 293.991 537.885 293.395C537.472 292.799 536.885 292.335 536.199 292.062C535.512 291.788 534.757 291.718 534.029 291.859C533.301 292 532.632 292.346 532.108 292.854C531.584 293.362 531.228 294.009 531.086 294.713C530.943 295.416 531.02 296.144 531.306 296.806C531.593 297.467 532.077 298.031 532.696 298.427C533.315 298.823 534.042 299.032 534.785 299.029C535.777 299.024 536.727 298.641 537.426 297.962C538.126 297.284 538.519 296.366 538.519 295.408Z" fill="#8C8C8C"/>
<path d="M517.85 237.054H492.704V304.921H517.85V237.054Z" fill="#8C8C8C"/>
<path d="M511.568 242.621H499.004V282.959H511.568V242.621Z" fill="#8C8C8C"/>
<path d="M505.286 299.012C507.348 299.012 509.02 297.398 509.02 295.408C509.02 293.418 507.348 291.805 505.286 291.805C503.224 291.805 501.552 293.418 501.552 295.408C501.552 297.398 503.224 299.012 505.286 299.012Z" fill="#8C8C8C"/>
<path d="M488.369 237.054H463.223V304.921H488.369V237.054Z" fill="#A8A8A8"/>
<path d="M482.069 242.621H469.505V282.959H482.069V242.621Z" fill="#8C8C8C"/>
<path d="M475.787 299.012C477.849 299.012 479.521 297.398 479.521 295.408C479.521 293.418 477.849 291.805 475.787 291.805C473.725 291.805 472.053 293.418 472.053 295.408C472.053 297.398 473.725 299.012 475.787 299.012Z" fill="#8C8C8C"/>
<path d="M581.997 237.054H556.852V304.921H581.997V237.054Z" fill="#8C8C8C"/>
<path d="M575.715 242.621H563.151V282.959H575.715V242.621Z" fill="#8C8C8C"/>
<path d="M569.433 299.012C571.495 299.012 573.167 297.398 573.167 295.408C573.167 293.418 571.495 291.805 569.433 291.805C567.371 291.805 565.7 293.418 565.7 295.408C565.7 297.398 567.371 299.012 569.433 299.012Z" fill="#8C8C8C"/>
<path d="M456.959 237.054H431.813V304.921H456.959V237.054Z" fill="#A8A8A8"/>
<path d="M450.659 242.621H438.095V282.959H450.659V242.621Z" fill="#8C8C8C"/>
<path d="M444.377 299.012C446.439 299.012 448.111 297.398 448.111 295.408C448.111 293.418 446.439 291.805 444.377 291.805C442.315 291.805 440.643 293.418 440.643 295.408C440.643 297.398 442.315 299.012 444.377 299.012Z" fill="#8C8C8C"/>
<path d="M558.303 202.216H482.724C485.252 205.063 486.596 208.714 486.493 212.462C486.589 216.21 485.247 219.859 482.724 222.709H558.303C561.119 222.709 563.819 221.629 565.81 219.708C567.802 217.786 568.92 215.18 568.92 212.462C568.92 209.745 567.802 207.139 565.81 205.217C563.819 203.295 561.119 202.216 558.303 202.216Z" fill="#D4D4D4" stroke="white" stroke-miterlimit="10"/>
<path d="M561.276 202.626V222.077C563.453 221.448 565.365 220.162 566.728 218.406C568.091 216.651 568.835 214.519 568.849 212.326C568.824 210.141 568.075 208.021 566.712 206.276C565.35 204.531 563.445 203.252 561.276 202.626Z" fill="#9C9C9C" stroke="white" stroke-miterlimit="10"/>
<path d="M558.303 180.579H482.724C485.247 183.429 486.589 187.078 486.493 190.825C486.589 194.572 485.247 198.222 482.724 201.072H558.303C561.119 201.072 563.819 199.992 565.81 198.071C567.802 196.149 568.92 193.543 568.92 190.825C568.92 188.108 567.802 185.501 565.81 183.58C563.819 181.658 561.119 180.579 558.303 180.579Z" fill="#D4D4D4" stroke="white" stroke-miterlimit="10"/>
<path d="M561.276 180.988V200.525C563.456 199.896 565.37 198.606 566.733 196.847C568.097 195.089 568.839 192.953 568.849 190.757C568.839 188.56 568.097 186.425 566.733 184.666C565.37 182.907 563.456 181.618 561.276 180.988Z" fill="#9C9C9C" stroke="white" stroke-miterlimit="10"/>
<path d="M481.733 152.81H456.587V220.677H481.733V152.81Z" fill="#A8A8A8"/>
<path d="M475.433 158.378H462.869V198.715H475.433V158.378Z" fill="#A8A8A8"/>
<path d="M472.885 211.165C472.885 210.452 472.666 209.755 472.256 209.163C471.845 208.57 471.262 208.108 470.58 207.835C469.898 207.563 469.147 207.491 468.423 207.63C467.698 207.769 467.033 208.113 466.511 208.617C465.989 209.121 465.633 209.763 465.489 210.462C465.345 211.161 465.419 211.885 465.702 212.543C465.984 213.202 466.463 213.765 467.077 214.161C467.691 214.557 468.413 214.768 469.151 214.768C469.642 214.77 470.129 214.679 470.583 214.498C471.037 214.318 471.449 214.053 471.797 213.718C472.144 213.382 472.419 212.984 472.606 212.546C472.792 212.108 472.887 211.638 472.885 211.165Z" fill="#A8A8A8"/>
<path d="M581.997 318.036H556.852V385.903H581.997V318.036Z" fill="#A8A8A8"/>
<path d="M575.715 323.621H563.151V363.958H575.715V323.621Z" fill="#8C8C8C"/>
<path d="M573.167 376.407C573.167 375.695 572.948 374.998 572.538 374.406C572.128 373.813 571.544 373.351 570.862 373.078C570.18 372.806 569.429 372.734 568.705 372.873C567.981 373.012 567.315 373.356 566.793 373.859C566.271 374.363 565.915 375.005 565.771 375.704C565.627 376.403 565.701 377.128 565.984 377.786C566.266 378.445 566.745 379.008 567.359 379.404C567.973 379.799 568.695 380.011 569.433 380.011C570.422 380.006 571.369 379.625 572.068 378.95C572.768 378.276 573.163 377.362 573.167 376.407Z" fill="#8C8C8C"/>
<path d="M552.852 318.036H527.707V385.903H552.852V318.036Z" fill="#A8A8A8"/>
<path d="M546.553 323.621H533.989V363.958H546.553V323.621Z" fill="#8C8C8C"/>
<path d="M544.004 376.407C544.004 375.695 543.785 374.998 543.375 374.406C542.965 373.813 542.382 373.351 541.7 373.078C541.017 372.806 540.266 372.734 539.542 372.873C538.818 373.012 538.153 373.356 537.63 373.859C537.108 374.363 536.753 375.005 536.609 375.704C536.464 376.403 536.538 377.128 536.821 377.786C537.104 378.445 537.582 379.008 538.196 379.404C538.81 379.799 539.532 380.011 540.271 380.011C540.761 380.011 541.246 379.918 541.7 379.737C542.153 379.555 542.564 379.29 542.911 378.955C543.258 378.621 543.533 378.224 543.72 377.786C543.908 377.349 544.004 376.881 544.004 376.407Z" fill="#8C8C8C"/>
<path d="M492.687 318.036H467.541V385.903H492.687V318.036Z" fill="#A8A8A8"/>
<path d="M486.387 323.621H473.823V363.958H486.387V323.621Z" fill="#8C8C8C"/>
<path d="M483.839 376.407C483.839 375.695 483.62 374.998 483.209 374.406C482.799 373.813 482.216 373.351 481.534 373.078C480.852 372.806 480.101 372.734 479.376 372.873C478.652 373.012 477.987 373.356 477.465 373.859C476.943 374.363 476.587 375.005 476.443 375.704C476.299 376.403 476.373 377.128 476.655 377.786C476.938 378.445 477.416 379.008 478.03 379.404C478.645 379.799 479.366 380.011 480.105 380.011C480.595 380.011 481.081 379.918 481.534 379.737C481.987 379.555 482.398 379.29 482.745 378.955C483.092 378.621 483.367 378.224 483.554 377.786C483.742 377.349 483.839 376.881 483.839 376.407Z" fill="#8C8C8C"/>
<path d="M523.69 318.036H498.544V385.903H523.69V318.036Z" fill="#A8A8A8"/>
<path d="M517.39 323.621H504.826V363.958H517.39V323.621Z" fill="#8C8C8C"/>
<path d="M514.842 376.407C514.842 375.695 514.623 374.998 514.212 374.406C513.802 373.813 513.219 373.351 512.537 373.078C511.855 372.806 511.104 372.734 510.38 372.873C509.655 373.012 508.99 373.356 508.468 373.859C507.946 374.363 507.59 375.005 507.446 375.704C507.302 376.403 507.376 377.128 507.658 377.786C507.941 378.445 508.42 379.008 509.034 379.404C509.648 379.799 510.369 380.011 511.108 380.011C511.598 380.011 512.084 379.918 512.537 379.737C512.99 379.555 513.401 379.29 513.748 378.955C514.095 378.621 514.37 378.224 514.558 377.786C514.745 377.349 514.842 376.881 514.842 376.407Z" fill="#8C8C8C"/>
<path d="M259.367 401.153H234.222V469.019H259.367V401.153Z" fill="#A8A8A8"/>
<path d="M253.068 406.72H240.504V447.057H253.068V406.72Z" fill="#A8A8A8"/>
<path d="M246.786 463.11C248.848 463.11 250.52 461.497 250.52 459.507C250.52 457.517 248.848 455.904 246.786 455.904C244.724 455.904 243.052 457.517 243.052 459.507C243.052 461.497 244.724 463.11 246.786 463.11Z" fill="#A8A8A8"/>
<path d="M295.255 401.153H270.109V469.019H295.255V401.153Z" fill="#A8A8A8"/>
<path d="M288.973 406.72H276.409V447.057H288.973V406.72Z" fill="#A8A8A8"/>
<path d="M282.69 463.11C284.753 463.11 286.424 461.497 286.424 459.507C286.424 457.517 284.753 455.904 282.69 455.904C280.628 455.904 278.957 457.517 278.957 459.507C278.957 461.497 280.628 463.11 282.69 463.11Z" fill="#A8A8A8"/>
<path d="M331.159 401.153H306.014V469.019H331.159V401.153Z" fill="#A8A8A8"/>
<path d="M324.877 406.72H312.313V447.057H324.877V406.72Z" fill="#A8A8A8"/>
<path d="M318.595 463.11C320.657 463.11 322.329 461.497 322.329 459.507C322.329 457.517 320.657 455.904 318.595 455.904C316.533 455.904 314.861 457.517 314.861 459.507C314.861 461.497 316.533 463.11 318.595 463.11Z" fill="#A8A8A8"/>
<path d="M367.064 401.153H341.918V469.019H367.064V401.153Z" fill="#A8A8A8"/>
<path d="M360.764 406.72H348.2V447.057H360.764V406.72Z" fill="#A8A8A8"/>
<path d="M358.234 459.456C358.234 458.739 358.013 458.038 357.6 457.443C357.187 456.847 356.6 456.383 355.914 456.109C355.227 455.836 354.472 455.765 353.744 455.906C353.016 456.047 352.347 456.394 351.823 456.902C351.299 457.41 350.944 458.057 350.801 458.76C350.658 459.463 350.735 460.192 351.022 460.853C351.308 461.514 351.792 462.079 352.411 462.474C353.03 462.87 353.757 463.08 354.5 463.076C355.492 463.072 356.442 462.688 357.141 462.01C357.841 461.331 358.234 460.413 358.234 459.456Z" fill="#A8A8A8"/>
<path d="M223.799 205H216.331V557.106H223.799V205Z" fill="#A8A8A8"/>
<path d="M398.421 205H390.953V557.106H398.421V205Z" fill="#A8A8A8"/>
<path d="M407.941 223.29H203.75V228.208H407.941V223.29Z" fill="#A8A8A8"/>
<path d="M407.941 304.921H203.75V309.839H407.941V304.921Z" fill="#A8A8A8"/>
<path d="M407.941 386.569H203.75V391.487H407.941V386.569Z" fill="#A8A8A8"/>
<path d="M407.941 468.2H203.75V473.118H407.941V468.2Z" fill="#A8A8A8"/>
<path d="M345.033 237.054H319.887V304.921H345.033V237.054Z" fill="#A8A8A8"/>
<path d="M338.733 242.621H326.169V282.959H338.733V242.621Z" fill="#A8A8A8"/>
<path d="M336.203 295.408C336.203 294.692 335.982 293.991 335.569 293.395C335.156 292.799 334.569 292.335 333.883 292.062C333.196 291.788 332.441 291.718 331.713 291.859C330.985 292 330.316 292.346 329.792 292.854C329.268 293.362 328.912 294.009 328.77 294.713C328.627 295.416 328.704 296.144 328.99 296.806C329.277 297.467 329.761 298.031 330.38 298.427C330.999 298.823 331.726 299.032 332.469 299.029C333.461 299.024 334.41 298.641 335.11 297.962C335.81 297.284 336.203 296.366 336.203 295.408Z" fill="#A8A8A8"/>
<path d="M315.552 237.054H290.406V304.921H315.552V237.054Z" fill="#A8A8A8"/>
<path d="M309.252 242.621H296.688V282.959H309.252V242.621Z" fill="#8C8C8C"/>
<path d="M302.97 299.012C305.032 299.012 306.704 297.398 306.704 295.408C306.704 293.418 305.032 291.805 302.97 291.805C300.908 291.805 299.236 293.418 299.236 295.408C299.236 297.398 300.908 299.012 302.97 299.012Z" fill="#8C8C8C"/>
<path d="M286.053 237.054H260.907V304.921H286.053V237.054Z" fill="#A8A8A8"/>
<path d="M279.753 242.621H267.189V282.959H279.753V242.621Z" fill="#8C8C8C"/>
<path d="M273.471 299.012C275.533 299.012 277.205 297.398 277.205 295.408C277.205 293.418 275.533 291.805 273.471 291.805C271.409 291.805 269.737 293.418 269.737 295.408C269.737 297.398 271.409 299.012 273.471 299.012Z" fill="#8C8C8C"/>
<path d="M379.699 237.054H354.553V304.921H379.699V237.054Z" fill="#A8A8A8"/>
<path d="M373.399 242.621H360.835V282.959H373.399V242.621Z" fill="#8C8C8C"/>
<path d="M367.117 299.012C369.179 299.012 370.851 297.398 370.851 295.408C370.851 293.418 369.179 291.805 367.117 291.805C365.055 291.805 363.383 293.418 363.383 295.408C363.383 297.398 365.055 299.012 367.117 299.012Z" fill="#A8A8A8"/>
<path d="M254.643 237.054H229.497V304.921H254.643V237.054Z" fill="#A8A8A8"/>
<path d="M248.343 242.621H235.779V282.959H248.343V242.621Z" fill="#8C8C8C"/>
<path d="M242.061 299.012C244.123 299.012 245.795 297.398 245.795 295.408C245.795 293.418 244.123 291.805 242.061 291.805C239.999 291.805 238.327 293.418 238.327 295.408C238.327 297.398 239.999 299.012 242.061 299.012Z" fill="#8C8C8C"/>
<path d="M254.643 155.082H229.497V222.948H254.643V155.082Z" fill="#A8A8A8"/>
<path d="M248.343 160.649H235.779V200.986H248.343V160.649Z" fill="#8C8C8C"/>
<path d="M242.061 217.039C244.123 217.039 245.795 215.426 245.795 213.436C245.795 211.446 244.123 209.832 242.061 209.832C239.999 209.832 238.327 211.446 238.327 213.436C238.327 215.426 239.999 217.039 242.061 217.039Z" fill="#8C8C8C"/>
<path d="M282.266 155.082H257.12V222.948H282.266V155.082Z" fill="#A8A8A8"/>
<path d="M275.984 160.649H263.42V200.986H275.984V160.649Z" fill="#8C8C8C"/>
<path d="M269.702 217.039C271.764 217.039 273.436 215.426 273.436 213.436C273.436 211.446 271.764 209.832 269.702 209.832C267.64 209.832 265.968 211.446 265.968 213.436C265.968 215.426 267.64 217.039 269.702 217.039Z" fill="#8C8C8C"/>
<path d="M353.615 224.297V200.03H283.292V224.297H353.615Z" fill="#A8A8A8"/>
<path d="M347.846 218.218V206.092H306.067V218.218H347.846Z" fill="#8C8C8C"/>
<path d="M293.237 215.758C293.976 215.758 294.698 215.547 295.312 215.151C295.926 214.755 296.404 214.192 296.687 213.534C296.969 212.876 297.043 212.151 296.899 211.452C296.755 210.753 296.4 210.111 295.877 209.607C295.355 209.103 294.69 208.76 293.966 208.621C293.241 208.482 292.491 208.553 291.808 208.826C291.126 209.099 290.543 209.561 290.133 210.153C289.722 210.746 289.503 211.442 289.503 212.155C289.508 213.109 289.903 214.023 290.602 214.698C291.301 215.373 292.248 215.754 293.237 215.758Z" fill="#8C8C8C"/>
<path d="M379.699 318.036H354.553V385.903H379.699V318.036Z" fill="#A8A8A8"/>
<path d="M373.399 323.621H360.835V363.958H373.399V323.621Z" fill="#A8A8A8"/>
<path d="M370.851 376.407C370.851 375.695 370.632 374.998 370.222 374.406C369.812 373.813 369.228 373.351 368.546 373.078C367.864 372.806 367.113 372.734 366.389 372.873C365.664 373.012 364.999 373.356 364.477 373.859C363.955 374.363 363.599 375.005 363.455 375.704C363.311 376.403 363.385 377.128 363.668 377.786C363.95 378.445 364.429 379.008 365.043 379.404C365.657 379.799 366.379 380.011 367.117 380.011C367.608 380.011 368.093 379.918 368.546 379.737C368.999 379.555 369.411 379.29 369.757 378.955C370.104 378.621 370.379 378.224 370.567 377.786C370.754 377.349 370.851 376.881 370.851 376.407Z" fill="#A8A8A8"/>
<path d="M350.536 318.036H325.391V385.903H350.536V318.036Z" fill="#A8A8A8"/>
<path d="M344.237 323.621H331.672V363.958H344.237V323.621Z" fill="#A8A8A8"/>
<path d="M341.688 376.407C341.688 375.695 341.469 374.998 341.059 374.406C340.649 373.813 340.066 373.351 339.383 373.078C338.701 372.806 337.95 372.734 337.226 372.873C336.502 373.012 335.837 373.356 335.314 373.859C334.792 374.363 334.437 375.005 334.292 375.704C334.148 376.403 334.222 377.128 334.505 377.786C334.788 378.445 335.266 379.008 335.88 379.404C336.494 379.799 337.216 380.011 337.955 380.011C338.445 380.011 338.93 379.918 339.383 379.737C339.836 379.555 340.248 379.29 340.595 378.955C340.941 378.621 341.216 378.224 341.404 377.786C341.592 377.349 341.688 376.881 341.688 376.407Z" fill="#A8A8A8"/>
<path d="M290.371 318.036H265.225V385.903H290.371V318.036Z" fill="#A8A8A8"/>
<path d="M284.071 323.621H271.507V363.958H284.071V323.621Z" fill="#A8A8A8"/>
<path d="M281.523 376.407C281.523 375.695 281.304 374.998 280.893 374.406C280.483 373.813 279.9 373.351 279.218 373.078C278.535 372.806 277.785 372.734 277.06 372.873C276.336 373.012 275.671 373.356 275.149 373.859C274.626 374.363 274.271 375.005 274.127 375.704C273.983 376.403 274.057 377.128 274.339 377.786C274.622 378.445 275.1 379.008 275.714 379.404C276.328 379.799 277.05 380.011 277.789 380.011C278.279 380.011 278.765 379.918 279.218 379.737C279.671 379.555 280.082 379.29 280.429 378.955C280.776 378.621 281.051 378.224 281.238 377.786C281.426 377.349 281.523 376.881 281.523 376.407Z" fill="#A8A8A8"/>
<path d="M321.374 318.036H296.228V385.903H321.374V318.036Z" fill="#A8A8A8"/>
<path d="M315.074 323.621H302.51V363.958H315.074V323.621Z" fill="#A8A8A8"/>
<path d="M312.526 376.407C312.526 375.695 312.307 374.998 311.896 374.406C311.486 373.813 310.903 373.351 310.221 373.078C309.538 372.806 308.788 372.734 308.063 372.873C307.339 373.012 306.674 373.356 306.152 373.859C305.629 374.363 305.274 375.005 305.13 375.704C304.986 376.403 305.06 377.128 305.342 377.786C305.625 378.445 306.103 379.008 306.717 379.404C307.331 379.799 308.053 380.011 308.792 380.011C309.282 380.011 309.768 379.918 310.221 379.737C310.674 379.555 311.085 379.29 311.432 378.955C311.779 378.621 312.054 378.224 312.241 377.786C312.429 377.349 312.526 376.881 312.526 376.407Z" fill="#A8A8A8"/>
<path d="M55.6002 401.153H30.4545V469.019H55.6002V401.153Z" fill="#A8A8A8"/>
<path d="M49.3005 406.72H36.7365V447.057H49.3005V406.72Z" fill="#8C8C8C"/>
<path d="M43.0362 463.11C45.0983 463.11 46.77 461.497 46.77 459.507C46.77 457.517 45.0983 455.904 43.0362 455.904C40.9741 455.904 39.3024 457.517 39.3024 459.507C39.3024 461.497 40.9741 463.11 43.0362 463.11Z" fill="#8C8C8C"/>
<path d="M91.505 401.153H66.3593V469.019H91.505V401.153Z" fill="#A8A8A8"/>
<path d="M85.2053 406.72H72.6413V447.057H85.2053V406.72Z" fill="#8C8C8C"/>
<path d="M78.941 463.11C81.0031 463.11 82.6748 461.497 82.6748 459.507C82.6748 457.517 81.0031 455.904 78.941 455.904C76.8789 455.904 75.2072 457.517 75.2072 459.507C75.2072 461.497 76.8789 463.11 78.941 463.11Z" fill="#8C8C8C"/>
<path d="M127.41 401.153H102.264V469.019H127.41V401.153Z" fill="#8C8C8C"/>
<path d="M121.11 406.72H108.546V447.057H121.11V406.72Z" fill="#A8A8A8"/>
<path d="M114.828 463.11C116.89 463.11 118.562 461.497 118.562 459.507C118.562 457.517 116.89 455.904 114.828 455.904C112.766 455.904 111.094 457.517 111.094 459.507C111.094 461.497 112.766 463.11 114.828 463.11Z" fill="#A8A8A8"/>
<path d="M163.315 401.153H138.169V469.019H163.315V401.153Z" fill="#A8A8A8"/>
<path d="M157.015 406.72H144.451V447.057H157.015V406.72Z" fill="#8C8C8C"/>
<path d="M150.733 463.11C152.795 463.11 154.467 461.497 154.467 459.507C154.467 457.517 152.795 455.904 150.733 455.904C148.671 455.904 146.999 457.517 146.999 459.507C146.999 461.497 148.671 463.11 150.733 463.11Z" fill="#8C8C8C"/>
<path d="M20.0317 205H12.564V557.106H20.0317V205Z" fill="#A8A8A8"/>
<path d="M194.672 205H187.204V557.106H194.672V205Z" fill="#A8A8A8"/>
<path d="M204.192 223.29H0V228.208H204.192V223.29Z" fill="#A8A8A8"/>
<path d="M204.192 304.921H0V309.839H204.192V304.921Z" fill="#A8A8A8"/>
<path d="M204.192 386.569H0V391.487H204.192V386.569Z" fill="#A8A8A8"/>
<path d="M204.192 468.2H0V473.118H204.192V468.2Z" fill="#A8A8A8"/>
<path d="M141.283 237.054H116.138V304.921H141.283V237.054Z" fill="#8C8C8C"/>
<path d="M134.984 242.621H122.42V282.959H134.984V242.621Z" fill="#A8A8A8"/>
<path d="M132.453 295.408C132.453 294.692 132.233 293.992 131.821 293.397C131.409 292.802 130.823 292.337 130.137 292.063C129.452 291.789 128.697 291.718 127.97 291.857C127.242 291.997 126.574 292.342 126.049 292.848C125.524 293.355 125.167 294 125.022 294.702C124.877 295.404 124.952 296.132 125.236 296.794C125.52 297.455 126 298.021 126.617 298.419C127.234 298.816 127.96 299.029 128.702 299.029C129.697 299.029 130.651 298.647 131.354 297.968C132.058 297.289 132.453 296.369 132.453 295.408Z" fill="#A8A8A8"/>
<path d="M111.784 237.054H86.6387V304.921H111.784V237.054Z" fill="#A8A8A8"/>
<path d="M105.485 242.621H92.9207V282.959H105.485V242.621Z" fill="#8C8C8C"/>
<path d="M99.2204 299.012C101.283 299.012 102.954 297.398 102.954 295.408C102.954 293.418 101.283 291.805 99.2204 291.805C97.1583 291.805 95.4866 293.418 95.4866 295.408C95.4866 297.398 97.1583 299.012 99.2204 299.012Z" fill="#8C8C8C"/>
<path d="M82.3032 237.054H57.1574V304.921H82.3032V237.054Z" fill="#A8A8A8"/>
<path d="M76.0035 242.621H63.4395V282.959H76.0035V242.621Z" fill="#8C8C8C"/>
<path d="M69.7215 299.012C71.7836 299.012 73.4553 297.398 73.4553 295.408C73.4553 293.418 71.7836 291.805 69.7215 291.805C67.6594 291.805 65.9877 293.418 65.9877 295.408C65.9877 297.398 67.6594 299.012 69.7215 299.012Z" fill="#8C8C8C"/>
<path d="M175.932 237.054H150.786V304.921H175.932V237.054Z" fill="#A8A8A8"/>
<path d="M169.632 242.621H157.068V282.959H169.632V242.621Z" fill="#8C8C8C"/>
<path d="M163.368 299.012C165.43 299.012 167.101 297.398 167.101 295.408C167.101 293.418 165.43 291.805 163.368 291.805C161.306 291.805 159.634 293.418 159.634 295.408C159.634 297.398 161.306 299.012 163.368 299.012Z" fill="#8C8C8C"/>
<path d="M104.653 199.569V223.836H174.976V199.569H104.653Z" fill="#A8A8A8"/>
<path d="M110.44 205.631V217.756H152.237V205.631H110.44Z" fill="#8C8C8C"/>
<path d="M165.137 208.091C164.395 208.087 163.667 208.297 163.048 208.692C162.429 209.088 161.945 209.652 161.659 210.314C161.372 210.975 161.295 211.703 161.438 212.407C161.581 213.11 161.937 213.757 162.461 214.265C162.985 214.773 163.653 215.12 164.381 215.261C165.109 215.402 165.865 215.331 166.551 215.057C167.238 214.784 167.825 214.32 168.238 213.724C168.651 213.128 168.871 212.428 168.871 211.711C168.871 210.754 168.478 209.835 167.779 209.157C167.079 208.479 166.129 208.095 165.137 208.091Z" fill="#8C8C8C"/>
<path d="M102.034 175.729V199.996H172.357V175.729H102.034Z" fill="#A8A8A8"/>
<path d="M107.803 181.791V193.916H149.6V181.791H107.803Z" fill="#8C8C8C"/>
<path d="M162.501 184.25C161.762 184.25 161.04 184.462 160.426 184.858C159.812 185.253 159.334 185.816 159.051 186.475C158.768 187.133 158.694 187.858 158.838 188.557C158.983 189.256 159.338 189.898 159.86 190.402C160.383 190.906 161.048 191.249 161.772 191.388C162.496 191.527 163.247 191.455 163.929 191.183C164.612 190.91 165.195 190.448 165.605 189.856C166.015 189.263 166.234 188.566 166.234 187.854C166.237 187.38 166.142 186.91 165.955 186.472C165.768 186.034 165.493 185.636 165.146 185.301C164.799 184.966 164.386 184.7 163.932 184.52C163.478 184.34 162.992 184.248 162.501 184.25Z" fill="#8C8C8C"/>
<path d="M50.8931 237.054H25.7474V304.921H50.8931V237.054Z" fill="#A8A8A8"/>
<path d="M44.5934 242.621H32.0294V282.959H44.5934V242.621Z" fill="#8C8C8C"/>
<path d="M38.3114 299.012C40.3736 299.012 42.0452 297.398 42.0452 295.408C42.0452 293.418 40.3736 291.805 38.3114 291.805C36.2493 291.805 34.5776 293.418 34.5776 295.408C34.5776 297.398 36.2493 299.012 38.3114 299.012Z" fill="#8C8C8C"/>
<path d="M175.932 318.036H150.786V385.903H175.932V318.036Z" fill="#A8A8A8"/>
<path d="M169.632 323.621H157.068V363.958H169.632V323.621Z" fill="#8C8C8C"/>
<path d="M167.102 376.407C167.105 375.69 166.888 374.988 166.477 374.39C166.066 373.792 165.48 373.325 164.794 373.049C164.108 372.773 163.352 372.7 162.622 372.839C161.893 372.978 161.223 373.323 160.697 373.83C160.172 374.338 159.814 374.984 159.67 375.688C159.526 376.392 159.601 377.122 159.887 377.784C160.174 378.446 160.657 379.011 161.277 379.408C161.896 379.804 162.624 380.014 163.368 380.011C164.357 380.006 165.304 379.625 166.003 378.95C166.702 378.276 167.097 377.362 167.102 376.407Z" fill="#8C8C8C"/>
<path d="M146.769 318.036H121.623V385.903H146.769V318.036Z" fill="#8C8C8C"/>
<path d="M140.487 323.621H127.923V363.958H140.487V323.621Z" fill="#A8A8A8"/>
<path d="M137.939 376.407C137.939 375.695 137.72 374.998 137.31 374.406C136.899 373.813 136.316 373.351 135.634 373.078C134.952 372.806 134.201 372.734 133.477 372.873C132.752 373.012 132.087 373.356 131.565 373.859C131.043 374.363 130.687 375.005 130.543 375.704C130.399 376.403 130.473 377.128 130.755 377.786C131.038 378.445 131.517 379.008 132.131 379.404C132.745 379.799 133.467 380.011 134.205 380.011C135.194 380.006 136.141 379.625 136.84 378.95C137.539 378.276 137.934 377.362 137.939 376.407Z" fill="#A8A8A8"/>
<path d="M56.8566 318.036H31.7109V385.903H56.8566V318.036Z" fill="#8C8C8C"/>
<path d="M50.5746 323.621H38.0106V363.958H50.5746V323.621Z" fill="#A8A8A8"/>
<path d="M48.0264 376.407C48.0264 375.695 47.8074 374.998 47.3972 374.406C46.9869 373.813 46.4037 373.351 45.7215 373.078C45.0392 372.806 44.2885 372.734 43.5642 372.873C42.8399 373.012 42.1746 373.356 41.6524 373.859C41.1302 374.363 40.7746 375.005 40.6305 375.704C40.4865 376.403 40.5604 377.128 40.843 377.786C41.1256 378.445 41.6042 379.008 42.2182 379.404C42.8322 379.799 43.5541 380.011 44.2926 380.011C45.2814 380.006 46.2284 379.625 46.9277 378.95C47.6269 378.276 48.0218 377.362 48.0264 376.407Z" fill="#A8A8A8"/>
<path d="M86.6033 318.036H61.4575V385.903H86.6033V318.036Z" fill="#8C8C8C"/>
<path d="M80.3213 323.621H67.7572V363.958H80.3213V323.621Z" fill="#A8A8A8"/>
<path d="M77.7731 376.407C77.7731 375.695 77.5541 374.998 77.1438 374.406C76.7335 373.813 76.1504 373.351 75.4681 373.078C74.7859 372.806 74.0351 372.734 73.3108 372.873C72.5865 373.012 71.9212 373.356 71.3991 373.859C70.8769 374.363 70.5213 375.005 70.3772 375.704C70.2331 376.403 70.3071 377.128 70.5897 377.786C70.8723 378.445 71.3508 379.008 71.9649 379.404C72.5789 379.799 73.3008 380.011 74.0393 380.011C75.0281 380.006 75.9751 379.625 76.6743 378.95C77.3735 378.276 77.7684 377.362 77.7731 376.407Z" fill="#A8A8A8"/>
<path d="M117.606 318.036H92.4606V385.903H117.606V318.036Z" fill="#8C8C8C"/>
<path d="M111.324 323.621H98.7603V363.958H111.324V323.621Z" fill="#A8A8A8"/>
<path d="M108.776 376.407C108.776 375.695 108.557 374.998 108.147 374.406C107.737 373.813 107.153 373.351 106.471 373.078C105.789 372.806 105.038 372.734 104.314 372.873C103.59 373.012 102.924 373.356 102.402 373.859C101.88 374.363 101.524 375.005 101.38 375.704C101.236 376.403 101.31 377.128 101.593 377.786C101.875 378.445 102.354 379.008 102.968 379.404C103.582 379.799 104.304 380.011 105.042 380.011C106.031 380.006 106.978 379.625 107.677 378.95C108.377 378.276 108.771 377.362 108.776 376.407Z" fill="#A8A8A8"/>
<path d="M98.4772 557.789H60.7674L55.1047 497.453H104.14L98.4772 557.789Z" fill="#92E3A9" stroke="#263238" stroke-linecap="round" stroke-linejoin="round"/>
<path d="M104.051 495.268H55.1755C53.7486 495.268 52.5919 496.384 52.5919 497.761V498C52.5919 499.377 53.7486 500.493 55.1755 500.493H104.051C105.478 500.493 106.635 499.377 106.635 498V497.761C106.635 496.384 105.478 495.268 104.051 495.268Z" fill="white" stroke="#263238" stroke-linecap="round" stroke-linejoin="round"/>
<path d="M57.4937 411.041C58.2457 409.408 59.3781 407.964 60.8028 406.823" stroke="#263238" stroke-linecap="round" stroke-linejoin="round"/>
<path d="M70.5532 492.006C70.5532 492.006 81.7015 490.213 89.5939 477.661C97.4862 465.109 86.3555 458.875 68.235 444.035C56.9628 434.83 54.5031 424.395 55.7064 416.711" stroke="#263238" stroke-linecap="round" stroke-linejoin="round"/>
<path d="M94.2833 489.956C98.4154 487.472 101.395 483.545 102.6 478.993C104.936 470.454 101.68 460.617 88.6737 452.556C75.6673 444.496 68.6951 442.31 62.6608 434.625" stroke="#263238" stroke-linecap="round" stroke-linejoin="round"/>
<path d="M84.9576 493.338C87.0103 493.03 89.0104 492.456 90.9034 491.63" stroke="#263238" stroke-linecap="round" stroke-linejoin="round"/>
<path d="M248.007 396.371C239.583 387.303 236.15 377.21 238.699 363.36C243.123 339.452 270.303 312.862 270.303 296.143C270.303 279.424 282.425 240.487 319.462 238.181C356.5 235.876 375.293 253.841 383.167 293.188C391.042 332.535 390.653 339.417 399.819 357.776C403.588 365.341 407.853 372.975 409.41 381.326C412.507 397.891 393.873 405.986 380.69 410.546C343.67 423.32 297.343 431.756 262.482 408.616C257.168 405.106 252.308 400.996 248.007 396.371Z" fill="#263238" stroke="#263238" stroke-linecap="round" stroke-linejoin="round"/>
<path d="M382.141 323.603C384.16 324.504 386.271 325.197 388.441 325.67" stroke="white" stroke-miterlimit="10" stroke-linecap="round"/>
<path d="M331.354 269.297C331.354 269.297 345.953 302.598 363.206 313.494C367.082 315.936 370.479 317.882 373.417 319.454" stroke="white" stroke-miterlimit="10" stroke-linecap="round"/>
<path d="M308.827 279.56C300.439 293.547 284.46 315.714 262.977 325.021" stroke="white" stroke-miterlimit="10" stroke-linecap="round"/>
<path d="M315.41 267.367C315.41 267.367 314.384 269.621 312.419 273.259" stroke="white" stroke-miterlimit="10" stroke-linecap="round"/>
<path d="M276.249 325.67C276.249 325.67 248.998 351.867 252.36 382.607" stroke="white" stroke-miterlimit="10" stroke-linecap="round"/>
<path d="M283.558 331.374C283.558 331.374 270.94 364.692 274.922 385.834" stroke="white" stroke-miterlimit="10" stroke-linecap="round"/>
<path d="M295.449 364.675C295.449 364.675 232.594 381.053 227.834 382.692C223.073 384.331 223.763 394.834 223.763 397.123C223.763 399.411 209.837 468.268 209.837 468.268C205.38 470.98 201.171 474.053 197.255 477.456C191.823 482.374 193.858 488.932 193.858 490.571C193.858 492.211 194.194 492.86 192.495 494.499C190.796 496.139 187.062 493.201 187.753 503.362C188.443 513.524 184.691 537.518 194.194 538.764C203.696 540.011 208.474 539.106 222.401 534.512C230.601 531.875 237.499 526.399 241.76 519.142V557.84H412.312C412.312 557.84 429.636 508.981 430.663 476.858C431.689 444.735 436.095 397.498 429.99 388.652C423.885 379.806 391.591 369.969 363.047 366.69C334.504 363.411 300.546 363.36 295.449 364.675Z" fill="#92E3A9"/>
<g style="mix-blend-mode:multiply" opacity="0.24">
<path d="M423.496 383.29C424.381 384.297 424.752 385.151 423.992 385.493C421.656 386.569 410.684 389.984 409.357 394.476C408.03 398.967 408.578 380.813 406.03 386.125C403.482 391.436 400.031 412.458 386.069 454.845C374.903 488.676 368.851 531.916 372.621 557.789H412.312C412.312 557.789 429.636 508.93 430.663 476.807C431.689 444.684 436.095 397.447 429.99 388.601C428.222 386.423 426.012 384.616 423.496 383.29Z" fill="black"/>
</g>
<path d="M297.82 355.487C295.442 357.035 293.56 359.194 292.388 361.721C290.017 366.297 269.967 402.041 268.268 403.68C266.57 405.32 277.435 404.995 281.859 403.031C286.283 401.067 294.423 401.067 294.423 401.067L302.244 406.959L326.364 416.147C326.364 416.147 337.229 408.599 342.662 404.346C348.094 400.094 350.483 398.438 350.483 398.438C355.201 399.978 359.752 401.957 364.074 404.346C369.506 407.625 367.471 409.265 369.506 407.625C371.541 405.986 370.533 402.707 367.737 398.113C364.941 393.519 356.535 368.278 345.988 358.835C335.442 349.391 310.384 346.3 297.82 355.487Z" fill="#92E3A9" stroke="#263238" stroke-linecap="round" stroke-linejoin="round"/>
<path d="M347.086 437.135L393.979 437.46L392.953 450.251L368.834 462.052L347.086 450.575V437.135Z" fill="#92E3A9" stroke="#263238" stroke-linecap="round" stroke-linejoin="round"/>
<path d="M241.76 433.19L288.654 433.515L287.628 446.306L263.508 458.107L241.76 446.631V433.19Z" fill="#92E3A9" stroke="#263238" stroke-linecap="round" stroke-linejoin="round"/>
<g style="mix-blend-mode:multiply" opacity="0.24">
<path d="M242.326 531.267C242.326 531.267 239.672 434.3 241.672 423.371C243.671 412.441 229.692 379.703 230.346 397.054C231.001 414.405 235.655 440.551 236.044 447.057C236.434 453.564 220.366 450.353 221.693 458.704C223.02 467.055 232.311 467.038 235.018 479.898C237.725 492.757 215.039 492.091 215.039 499.161C215.039 506.231 223.038 515.846 216.384 521.635C209.731 527.425 205.979 519.671 205.979 519.671C208.347 525.762 208.802 532.391 207.289 538.73C212.44 537.707 217.509 536.326 222.454 534.597C230.654 531.961 237.552 526.485 241.813 519.227V533.163L242.326 531.267Z" fill="black"/>
</g>
<path d="M295.449 364.675C295.449 364.675 232.594 381.053 227.834 382.692C223.073 384.331 223.763 394.834 223.763 397.123C223.763 399.411 209.837 468.268 209.837 468.268C205.38 470.98 201.171 474.053 197.255 477.456C191.823 482.374 193.858 488.932 193.858 490.571C193.858 492.211 194.194 492.86 192.495 494.499C190.796 496.139 187.062 493.201 187.753 503.362C188.443 513.524 184.691 537.518 194.194 538.764C203.696 540.011 208.474 539.106 222.401 534.512C230.601 531.875 237.499 526.399 241.76 519.142V557.84H412.312C412.312 557.84 429.636 508.981 430.663 476.858C431.689 444.735 436.095 397.498 429.99 388.652C423.885 379.806 391.591 369.969 363.047 366.69C334.504 363.411 300.546 363.36 295.449 364.675Z" stroke="#263238" stroke-linecap="round" stroke-linejoin="round"/>
<path d="M241.76 463.025V519.757C241.76 519.757 238.699 483.689 230.559 474.501" stroke="#263238" stroke-linecap="round" stroke-linejoin="round"/>
<path d="M195.91 493.611C195.91 493.611 213.925 499.844 217.658 512.618C221.392 525.392 216.986 533.607 216.986 533.607" stroke="#263238" stroke-linecap="round" stroke-linejoin="round"/>
<path d="M174.357 515.112C174.357 515.112 187.505 509.339 188.513 508.281C189.522 507.222 201.095 507.751 205.926 519.637C210.757 531.523 207.253 537.227 204.847 538.508C202.44 539.789 189.823 543.341 186.337 543.341C182.851 543.341 168.199 519.518 174.357 515.112Z" fill="#92E3A9" stroke="#263238" stroke-linecap="round" stroke-linejoin="round"/>
<path d="M299.855 361.396C299.855 361.396 294.087 557.327 296.458 557.327H337.919C337.919 557.327 338.255 414.507 340.963 401.067C343.67 387.627 350.147 363.685 349.121 357.127C348.094 350.569 301.908 354.172 301.908 354.172C300.868 356.472 300.176 358.905 299.855 361.396Z" fill="white"/>
<path d="M299.855 361.396C299.855 361.396 294.087 557.327 296.458 557.327H337.919C337.919 557.327 338.255 414.507 340.963 401.067C343.67 387.627 350.147 363.685 349.121 357.127C348.094 350.569 301.908 354.172 301.908 354.172C300.868 356.472 300.176 358.905 299.855 361.396Z" fill="#92E3A9"/>
<path opacity="0.7" d="M299.855 361.396C299.855 361.396 294.087 557.327 296.458 557.327H337.919C337.919 557.327 338.255 414.507 340.963 401.067C343.67 387.627 350.147 363.685 349.121 357.127C348.094 350.569 301.908 354.172 301.908 354.172C300.868 356.472 300.176 358.905 299.855 361.396Z" fill="white"/>
<path d="M299.855 361.396C299.855 361.396 294.087 557.327 296.458 557.327H337.919C337.919 557.327 338.255 414.508 340.963 401.067C343.67 387.627 350.147 363.685 349.121 357.127C348.094 350.569 301.908 354.172 301.908 354.172C300.868 356.472 300.176 358.905 299.855 361.396Z" stroke="#263238" stroke-linecap="round" stroke-linejoin="round"/>
<path d="M340.715 402.69C327.115 406.908 312.571 407.423 298.688 404.176C297.13 462.752 294.794 557.328 296.458 557.328H337.919C337.919 557.328 338.238 423.473 340.715 402.69Z" fill="white"/>
<path d="M338.008 537.415C338.008 532.053 338.008 525.99 338.114 519.484H296.122C296.122 526.041 295.962 532.087 295.927 537.415H338.008Z" fill="#263238"/>
<path d="M296.776 485.328C296.652 491.476 296.529 497.471 296.422 503.26H338.291C338.291 497.402 338.397 491.391 338.468 485.328H296.776Z" fill="#263238"/>
<path d="M297.502 451.173C297.36 457.133 297.219 463.127 297.095 469.105H338.627C338.715 462.991 338.804 456.962 338.91 451.173H297.502Z" fill="#263238"/>
<path d="M298.351 417.018C298.21 422.773 298.05 428.784 297.891 434.949H339.246C339.406 428.238 339.6 422.158 339.813 417.018H298.351Z" fill="#263238"/>
<path d="M340.715 402.69C327.115 406.908 312.571 407.423 298.688 404.176C297.13 462.752 294.794 557.328 296.458 557.328H337.919C337.919 557.328 338.238 423.473 340.715 402.69Z" stroke="#263238" stroke-linecap="round" stroke-linejoin="round"/>
<path d="M319.569 276.725C319.569 276.725 313.446 295.408 286.955 312.144C286.955 312.144 285.186 335.421 292.388 352.789C299.59 370.157 318.542 383.939 326.7 382.299C334.858 380.66 350.819 362.95 356.252 350.501C361.685 338.051 361.702 315.748 361.702 315.748C361.702 315.748 334.168 298.431 319.569 276.725Z" fill="white" stroke="#263238" stroke-linecap="round" stroke-linejoin="round"/>
<path d="M317.534 340.083C317.534 340.083 316.843 350.894 318.542 351.884C320.241 352.875 323.302 352.533 323.639 348.93" stroke="#263238" stroke-linecap="round" stroke-linejoin="round"/>
<path d="M314.136 358.698C314.136 358.698 324.665 360.662 330.434 357.383" stroke="#263238" stroke-linecap="round" stroke-linejoin="round"/>
<path d="M313.924 307.721C313.924 307.721 299.661 304.05 293.538 314.296" stroke="#263238" stroke-linecap="round" stroke-linejoin="round"/>
<path d="M327.638 315.577C327.638 315.577 337.53 305.962 351.474 314.638" stroke="#263238" stroke-linecap="round" stroke-linejoin="round"/>
<path d="M297.484 328.266C297.484 328.266 303.943 334.174 314.472 329.973" stroke="#263238" stroke-linecap="round" stroke-linejoin="round"/>
<path d="M329.708 329.666C329.708 329.666 338.556 333.611 346.006 329.017" stroke="#263238" stroke-linecap="round" stroke-linejoin="round"/>
<path d="M304.156 344.66C312.033 344.66 318.418 338.498 318.418 330.896C318.418 323.294 312.033 317.131 304.156 317.131C296.278 317.131 289.893 323.294 289.893 330.896C289.893 338.498 296.278 344.66 304.156 344.66Z" stroke="#263238" stroke-width="0.75" stroke-linecap="round" stroke-linejoin="round"/>
<path d="M338.202 344.66C346.079 344.66 352.465 338.498 352.465 330.896C352.465 323.294 346.079 317.131 338.202 317.131C330.325 317.131 323.939 323.294 323.939 330.896C323.939 338.498 330.325 344.66 338.202 344.66Z" stroke="#263238" stroke-width="0.75" stroke-linecap="round" stroke-linejoin="round"/>
<path d="M318.418 330.896H323.922" stroke="#263238" stroke-width="0.75" stroke-linecap="round" stroke-linejoin="round"/>
<path d="M352.465 330.896H360.817" stroke="#263238" stroke-width="0.75" stroke-linecap="round" stroke-linejoin="round"/>
<path d="M286.07 330.896H289.857" stroke="#263238" stroke-width="0.75" stroke-linecap="round" stroke-linejoin="round"/>
<path d="M309.517 331.749C309.517 331.749 313.145 331.903 309.747 333.116C306.35 334.328 302.917 333.73 299.395 330.844C299.395 330.844 306.137 331.698 309.517 331.749Z" fill="#263238" stroke="#263238" stroke-linecap="round" stroke-linejoin="round"/>
<path d="M334.115 330.93C334.115 330.93 330.575 330.622 333.708 332.245C336.84 333.867 340.397 333.73 344.325 331.288C344.272 331.374 337.477 331.374 334.115 330.93Z" fill="#263238" stroke="#263238" stroke-linecap="round" stroke-linejoin="round"/>
<path d="M387.857 444.991L382.424 390.889C382.424 390.889 370.869 388.601 366.799 385.971C362.729 383.341 357.951 380.079 357.951 380.079C357.951 380.079 355.243 382.367 353.208 380.079C351.173 377.791 344.714 373.248 343.688 369.576C342.662 365.905 349.811 361.038 354.217 355.163C358.623 349.288 363.401 343.687 366.799 344.011C370.196 344.336 384.795 358.698 392.334 369.918C399.872 381.138 402.863 384.007 403.199 387.952C403.535 391.897 410.277 411.861 410.277 411.861L412.047 445.64L387.857 444.991Z" fill="white" stroke="#263238" stroke-linecap="round" stroke-linejoin="round"/>
<path d="M357.951 380.079C357.951 380.079 351.262 373.709 351.262 371.796" stroke="#263238" stroke-linecap="round" stroke-linejoin="round"/>
<path d="M376.301 413.688L382.76 448.441L389.839 409.743L417.356 406.806C417.356 406.806 417.108 448.116 417.108 458.602C417.108 469.088 421.868 516.973 423.231 533.743C424.593 550.514 415.409 555.944 402.845 556.354C390.281 556.764 380.071 545.544 376 522.916C371.93 500.288 376.673 458.978 374.638 452.095C372.603 445.213 364.02 417.018 364.02 417.018L376.301 413.688Z" fill="#92E3A9"/>
<g style="mix-blend-mode:multiply" opacity="0.24">
<path d="M407.163 555.944C417.409 554.476 424.381 548.413 423.195 533.743C421.833 517.024 417.072 469.156 417.072 458.602C417.072 448.048 417.409 406.806 417.409 406.806L412.949 407.284C410.383 415.532 396.085 463.947 403.358 498.512C411.357 536.407 418.01 540.25 407.357 555.671L407.163 555.944Z" fill="black"/>
</g>
<path d="M376.301 413.688L382.76 448.441L389.839 409.743L417.356 406.806C417.356 406.806 417.108 448.116 417.108 458.602C417.108 469.088 421.868 516.973 423.231 533.743C424.593 550.514 415.409 555.944 402.845 556.354C390.281 556.764 380.071 545.544 376 522.916C371.93 500.288 376.673 458.978 374.638 452.095C372.603 445.213 364.02 417.018 364.02 417.018L376.301 413.688Z" stroke="#263238" stroke-linecap="round" stroke-linejoin="round"/>
<path d="M160.289 549.113C160.289 549.113 159.475 554.39 164.429 555.586C169.384 556.781 181.294 553.792 182.285 551.333C182.579 550.659 182.663 549.916 182.524 549.197C182.386 548.477 182.032 547.813 181.506 547.286H170.641C170.641 547.286 162.447 544.844 160.289 549.113Z" fill="white" stroke="#263238" stroke-linecap="round" stroke-linejoin="round"/>
<path d="M111.643 492.211L156.679 522.404L160.041 518.083L114.793 487.634L111.643 492.211Z" fill="#263238" stroke="#263238" stroke-linecap="round" stroke-linejoin="round"/>
<path d="M122.101 499.212L125.605 494.909L114.793 487.634L111.643 492.211L122.101 499.212Z" fill="white" stroke="#263238" stroke-linecap="round" stroke-linejoin="round"/>
<path d="M167.349 548.652C174.399 548.332 181.107 545.63 186.301 541.018C194.371 533.436 194.919 528.364 184.019 517.468C173.118 506.573 149.282 519.33 148.521 524.146C147.76 528.962 167.349 548.652 167.349 548.652Z" fill="white" stroke="#263238" stroke-linecap="round" stroke-linejoin="round"/>
<path d="M191.469 528.962C191.469 528.962 188.39 535.161 185.47 537.5C182.55 539.84 177.914 540.472 175.171 536.698C172.428 532.924 169.614 521.208 167.225 520.969C164.836 520.73 152.927 516.956 149.53 512.431C146.132 507.905 146.309 504.404 153.794 506.556C161.28 508.708 181.311 511.218 181.311 511.218C181.311 511.218 186.054 513.968 189.345 523.616" fill="white"/>
<path d="M191.469 528.962C191.469 528.962 188.39 535.161 185.47 537.5C182.55 539.84 177.914 540.472 175.171 536.698C172.428 532.924 169.614 521.208 167.225 520.969C164.836 520.73 152.927 516.956 149.53 512.431C146.132 507.905 146.309 504.404 153.794 506.556C161.28 508.708 181.311 511.218 181.311 511.218C181.311 511.218 186.054 513.968 189.345 523.616" stroke="#263238" stroke-linecap="round" stroke-linejoin="round"/>
<path d="M152.945 543.478C154.007 544.741 157.493 550.462 159.138 550.855C160.784 551.248 170.888 545.049 174.781 540.318C178.675 535.588 171.419 529.03 169.349 528.108C167.278 527.186 152.945 543.478 152.945 543.478Z" fill="white" stroke="#263238" stroke-linecap="round" stroke-linejoin="round"/>
<path d="M147.795 526.4C147.795 526.4 138.947 531.523 141.053 535.041C143.159 538.559 150.237 543.905 152.502 542.965C154.768 542.026 170.021 535.178 169.951 531.438C169.88 527.698 169.632 523.241 161.828 523.855C157.073 524.24 152.371 525.092 147.795 526.4Z" fill="white" stroke="#263238" stroke-linecap="round" stroke-linejoin="round"/>
<path d="M138.947 512.209C138.947 512.209 134.647 520.645 138.594 524.3C142.54 527.954 166.907 527.869 168.146 523.565C169.384 519.262 160.253 518.339 153.547 515.556C146.84 512.772 139.885 510.211 138.947 512.209Z" fill="white" stroke="#263238" stroke-linecap="round" stroke-linejoin="round"/>
<path d="M233.443 556.149C233.443 556.149 232.771 544.998 222.578 541.07C212.385 537.142 206.935 538.764 184.178 544.673C169.836 548.293 155.149 550.49 140.345 551.231V556.149H233.443Z" fill="white" stroke="#263238" stroke-linecap="round" stroke-linejoin="round"/>
<path d="M233.071 556.149C233.071 556.149 233.744 544.998 243.937 541.07C254.129 537.142 259.562 538.764 282.337 544.673C296.672 548.293 311.353 550.49 326.151 551.231V556.149H233.071Z" fill="white" stroke="#263238" stroke-linecap="round" stroke-linejoin="round"/>
<path d="M329.938 554.185H137.974V557.789H329.938V554.185Z" fill="#263238" stroke="#263238" stroke-linecap="round" stroke-linejoin="round"/>
<path d="M26.0305 557.789H643.013" stroke="#263238" stroke-linecap="round" stroke-linejoin="round"/>
<path d="M635.934 458.773H505.127L460.622 558.113H591.429L635.934 458.773Z" fill="white" stroke="#263238" stroke-linecap="round" stroke-linejoin="round"/>
<path d="M641.031 458.773H510.223L465.718 558.113H596.526L641.031 458.773Z" fill="#263238" stroke="#263238" stroke-linecap="round" stroke-linejoin="round"/>
<path d="M563.841 519.227C560.479 524.351 554.18 526.366 549.773 523.668C545.367 520.969 544.465 514.634 547.862 509.493C551.26 504.353 557.524 502.372 562.019 505.053C566.514 507.734 567.204 514.104 563.841 519.227Z" fill="white" stroke="#92E3A9" stroke-linecap="round" stroke-linejoin="round"/>
<path d="M462.321 554.185H366.852V557.789H462.321V554.185Z" fill="white" stroke="#263238" stroke-linecap="round" stroke-linejoin="round"/>
</svg>
